<svg xmlns="http://www.w3.org/2000/svg" viewBox="0 0 64 64" width="64" height="64">
  <defs>
    <linearGradient id="crownGradient" x1="0%" y1="0%" x2="100%" y2="100%">
      <stop offset="0%" style="stop-color:#1d4ed8;stop-opacity:1" />
      <stop offset="50%" style="stop-color:#3b82f6;stop-opacity:1" />
      <stop offset="100%" style="stop-color:#f97316;stop-opacity:1" />
    </linearGradient>
  </defs>
  
  <!-- Crown base -->
  <path d="M12 48 L52 48 L52 40 L48 40 L48 28 L44 28 L44 20 L40 20 L40 28 L36 28 L36 20 L32 20 L32 28 L28 28 L28 20 L24 20 L24 28 L20 28 L20 40 L16 40 L16 48 Z" 
        fill="url(#crownGradient)" 
        stroke="#1e40af" 
        stroke-width="1.5"/>
  
  <!-- Crown jewels/gems -->
  <circle cx="20" cy="24" r="3" fill="#fbbf24" opacity="0.9"/>
  <circle cx="32" cy="20" r="4" fill="#fbbf24" opacity="0.9"/>
  <circle cx="44" cy="24" r="3" fill="#fbbf24" opacity="0.9"/>
  
  <!-- Crown top points -->
  <path d="M16 28 L20 20 L24 28" fill="#1e40af" opacity="0.6"/>
  <path d="M28 28 L32 16 L36 28" fill="#1e40af" opacity="0.6"/>
  <path d="M40 28 L44 20 L48 28" fill="#1e40af" opacity="0.6"/>
  
  <!-- Base shadow -->
  <ellipse cx="32" cy="50" rx="20" ry="4" fill="#0a0a0a" opacity="0.3"/>
</svg>

